<svg width="19" height="18" viewBox="0 0 19 18" fill="none" xmlns="http://www.w3.org/2000/svg">
<g clip-path="url(#clip0_22_441)">
<path d="M9.50001 1.62207C11.9045 1.62207 12.1868 1.63279 13.1372 1.67566C14.0161 1.71497 14.4913 1.86145 14.8093 1.9865C15.2309 2.15085 15.531 2.34379 15.8454 2.6582C16.1598 2.97261 16.3563 3.27273 16.5171 3.69432C16.6386 4.01231 16.7886 4.48749 16.8279 5.36642C16.8708 6.31679 16.8815 6.59905 16.8815 9.00357C16.8815 11.4081 16.8708 11.6904 16.8279 12.6407C16.7886 13.5196 16.6421 13.9948 16.5171 14.3128C16.3527 14.7344 16.1598 15.0345 15.8454 15.3489C15.531 15.6634 15.2309 15.8599 14.8093 16.0206C14.4913 16.1421 14.0161 16.2922 13.1372 16.3315C12.1868 16.3744 11.9045 16.3851 9.50001 16.3851C7.09548 16.3851 6.81322 16.3744 5.86285 16.3315C4.98393 16.2922 4.50874 16.1457 4.19075 16.0206C3.76916 15.8563 3.46904 15.6634 3.15463 15.3489C2.84022 15.0345 2.64371 14.7344 2.48293 14.3128C2.36145 13.9948 2.21139 13.5196 2.17209 12.6407C2.12922 11.6904 2.1185 11.4081 2.1185 9.00357C2.1185 6.59905 2.12922 6.31679 2.17209 5.36642C2.21139 4.48749 2.35788 4.01231 2.48293 3.69432C2.64728 3.27273 2.84022 2.97261 3.15463 2.6582C3.46904 2.34379 3.76916 2.14728 4.19075 1.9865C4.50874 1.86503 4.98393 1.71497 5.86285 1.67566C6.81322 1.62922 7.09905 1.62207 9.50001 1.62207ZM9.50001 0C7.05618 0 6.74891 0.0107185 5.78782 0.0535927C4.83029 0.0964668 4.17646 0.250099 3.60481 0.471616C3.01171 0.700278 2.51151 1.01112 2.01131 1.51131C1.51112 2.01151 1.20385 2.51528 0.971616 3.1048C0.750099 3.67646 0.596467 4.33029 0.553593 5.29139C0.510719 6.24891 0.5 6.55617 0.5 9C0.5 11.4438 0.510719 11.7511 0.553593 12.7122C0.596467 13.6697 0.750099 14.3235 0.971616 14.8988C1.20028 15.4919 1.51112 15.9921 2.01131 16.4923C2.51151 16.9925 3.01529 17.2997 3.60481 17.532C4.17646 17.7535 4.83029 17.9071 5.79139 17.95C6.75249 17.9929 7.05618 18.0036 9.50358 18.0036C11.951 18.0036 12.2547 17.9929 13.2158 17.95C14.1733 17.9071 14.8271 17.7535 15.4024 17.532C15.9954 17.3033 16.4956 16.9925 16.9958 16.4923C17.496 15.9921 17.8033 15.4883 18.0355 14.8988C18.2571 14.3271 18.4107 13.6733 18.4536 12.7122C18.4964 11.7511 18.5072 11.4474 18.5072 9C18.5072 6.5526 18.4964 6.24891 18.4536 5.28781C18.4107 4.33029 18.2571 3.67646 18.0355 3.10123C17.8069 2.50814 17.496 2.00794 16.9958 1.50774C16.4956 1.00754 15.9919 0.700278 15.4024 0.468043C14.8307 0.246526 14.1769 0.092894 13.2158 0.0500198C12.2511 0.0107185 11.9438 0 9.50001 0Z" fill="white"/>
<path d="M9.49997 4.37988C6.94896 4.37988 4.87671 6.44856 4.87671 9.00314C4.87671 11.5577 6.94539 13.6264 9.49997 13.6264C12.0546 13.6264 14.1232 11.5577 14.1232 9.00314C14.1232 6.44856 12.0546 4.37988 9.49997 4.37988ZM9.49997 12.0008C7.84217 12.0008 6.49878 10.6574 6.49878 8.99957C6.49878 7.34177 7.84217 5.99838 9.49997 5.99838C11.1578 5.99838 12.5012 7.34177 12.5012 8.99957C12.5012 10.6574 11.1578 12.0008 9.49997 12.0008Z" fill="white"/>
<path d="M14.3054 5.27323C14.9014 5.27323 15.3844 4.79015 15.3844 4.19423C15.3844 3.59832 14.9014 3.11523 14.3054 3.11523C13.7095 3.11523 13.2264 3.59832 13.2264 4.19423C13.2264 4.79015 13.7095 5.27323 14.3054 5.27323Z" fill="white"/>
</g>
<defs>
<clipPath id="clip0_22_441">
<rect width="18" height="18" fill="white" transform="translate(0.5)"/>
</clipPath>
</defs>
</svg>
