<svg width="1471" height="200" viewBox="0 0 1471 200" fill="none" xmlns="http://www.w3.org/2000/svg">
<circle cx="363.634" cy="100" r="94" stroke="#FFD600" stroke-width="12"/>
<circle cx="364" cy="100" r="50" fill="white"/>
<circle cx="430.134" cy="35.5" r="27.5" fill="white"/>
<path d="M96.624 160.806L85.827 135.186H36.6L25.803 160.806H0L52.521 38.745H71.187L122.244 160.806H96.624ZM44.103 115.788H78.873L61.488 71.868L44.103 115.788Z" fill="white"/>
<path d="M218.08 59.241H190.63V160.806H166.84V59.241H139.39V38.745H218.08V59.241Z" fill="white"/>
<path d="M507.582 160.806L530.274 38.745H547.476L579.867 116.337L613.722 38.745H630.924L651.42 160.806H627.264L616.284 85.593L583.527 160.806H575.475L544.182 85.593L531.738 160.806H507.582Z" fill="white"/>
<path d="M688.773 160.806L711.465 38.745H728.667L761.058 116.337L794.913 38.745H812.115L832.611 160.806H808.455L797.475 85.593L764.718 160.806H756.666L725.373 85.593L712.929 160.806H688.773Z" fill="white"/>
<path d="M876.187 38.745H899.977V160.806H876.187V38.745Z" fill="white"/>
<path d="M973.584 160.806H949.794V38.745H966.264L1040.56 120.18V38.745H1064.35V160.806H1047.88L973.584 79.188V160.806Z" fill="white"/>
<path d="M1114.19 38.745H1137.98V160.806H1114.19V38.745Z" fill="white"/>
<path d="M1211.58 160.806H1187.79V38.745H1204.26L1278.56 120.18V38.745H1302.35V160.806H1285.88L1211.58 79.188V160.806Z" fill="white"/>
<path d="M1414.04 115.971V95.475H1470.04V96.939C1470.04 118.777 1464.06 135.613 1452.1 147.447C1441.37 158.183 1426.91 163.551 1408.73 163.551C1390.19 163.551 1375.43 158.061 1364.45 147.081C1352.37 135.003 1346.33 119.326 1346.33 100.05C1346.33 81.75 1352.31 66.622 1364.27 54.666C1376.46 42.222 1392.51 36 1412.39 36C1423.13 36 1432.52 38.135 1440.58 42.405C1449.97 47.163 1457.6 54.605 1463.45 64.731L1442.77 75.894C1439.48 69.55 1434.72 64.731 1428.5 61.437C1423.37 58.875 1417.64 57.594 1411.3 57.594C1399.83 57.594 1390.43 61.193 1383.11 68.391C1374.94 76.321 1370.85 87.057 1370.85 100.599C1370.85 113.409 1374.88 123.718 1382.93 131.526C1390.13 138.48 1399.16 141.957 1410.02 141.957C1419.53 141.957 1427.52 139.517 1433.99 134.637C1439.84 130.123 1443.69 123.901 1445.52 115.971H1414.04Z" fill="white"/>
</svg>
