<svg width="23" height="22" viewBox="0 0 23 22" fill="none" xmlns="http://www.w3.org/2000/svg">
<path d="M18.9464 2.92229C18.7081 2.9328 18.486 3.00224 18.2904 3.08127C18.1073 3.15494 17.4075 3.45508 16.3053 3.92775C15.2021 4.40084 13.7414 5.02798 12.1832 5.69807C9.06672 7.03824 5.56304 8.5468 3.76844 9.3189C3.70096 9.34792 3.46549 9.42315 3.21558 9.61825C2.96566 9.81335 2.69995 10.2176 2.69995 10.6681C2.69995 11.0314 2.87307 11.3922 3.09097 11.6077C3.30887 11.8232 3.53943 11.9296 3.73693 12.0102C4.45352 12.3026 6.67597 13.212 7.09565 13.3837C7.24335 13.8362 8.04778 16.2969 8.23433 16.9C8.3573 17.298 8.47436 17.5473 8.62677 17.7451C8.70298 17.844 8.79156 17.9307 8.89891 17.9986C8.94182 18.0257 8.98886 18.0466 9.03641 18.0659L9.03927 18.0673C9.05023 18.0717 9.05967 18.0792 9.07078 18.0831C9.09174 18.0904 9.10577 18.0913 9.13381 18.0974C9.24551 18.1335 9.35829 18.1561 9.45894 18.1561C9.88806 18.1561 10.1507 17.9198 10.1507 17.9198L10.1665 17.9084L12.3736 15.9991L15.0506 18.5314C15.0883 18.5847 15.4398 19.0671 16.2151 19.0671C16.6754 19.0671 17.0405 18.8361 17.275 18.5901C17.5094 18.3442 17.6554 18.0857 17.7175 17.7608V17.7594C17.7756 17.4524 20.2427 4.78713 20.2427 4.78713L20.2384 4.80432C20.3106 4.47467 20.3295 4.16768 20.2498 3.86473C20.1701 3.56179 19.9602 3.27173 19.6998 3.11565C19.4395 2.95959 19.1848 2.91177 18.9464 2.92229ZM18.8089 4.45484C18.8054 4.47624 18.8116 4.46548 18.8061 4.49065L18.8046 4.49924L18.8032 4.50783C18.8032 4.50783 16.3667 17.0111 16.2766 17.4873C16.2832 17.4513 16.2531 17.5228 16.2222 17.566C16.1785 17.5359 16.089 17.4973 16.089 17.4973L16.0747 17.4815L12.4181 14.0225L9.83276 16.2569L10.6019 13.1775C10.6019 13.1775 15.4098 8.20062 15.6994 7.91096C15.9326 7.67922 15.9816 7.59844 15.9816 7.51851C15.9816 7.41144 15.9258 7.33374 15.8011 7.33374C15.6889 7.33374 15.538 7.44283 15.4574 7.49416C14.4064 8.16409 9.79262 10.8531 7.72443 12.056C7.39576 11.9215 5.11237 10.9868 4.33849 10.671C4.34435 10.6684 4.34242 10.6693 4.34852 10.6667C6.14359 9.89439 9.64581 8.38583 12.7618 7.04585C14.3198 6.37586 15.7816 5.74825 16.8839 5.27554C17.9693 4.81011 18.7234 4.4898 18.8089 4.45484Z" fill="white"/>
</svg>
