<svg width="22" height="22" viewBox="0 0 22 22" fill="none" xmlns="http://www.w3.org/2000/svg">
<path d="M11 4.125C8.41113 4.125 6.12305 4.39355 4.72656 4.59766C3.57178 4.76685 2.63989 5.63696 2.42773 6.78906C2.2478 7.76929 2.0625 9.20337 2.0625 11C2.0625 12.7966 2.2478 14.2307 2.42773 15.2109C2.63989 16.363 3.57178 17.2358 4.72656 17.4023C6.12842 17.6064 8.42456 17.875 11 17.875C13.5754 17.875 15.8716 17.6064 17.2734 17.4023C18.4282 17.2358 19.3601 16.363 19.5723 15.2109C19.7522 14.228 19.9375 12.7913 19.9375 11C19.9375 9.20874 19.7549 7.77197 19.5723 6.78906C19.3601 5.63696 18.4282 4.76685 17.2734 4.59766C15.877 4.39355 13.5889 4.125 11 4.125ZM11 5.5C13.4976 5.5 15.7292 5.75513 17.0801 5.95117C17.6602 6.03711 18.114 6.47485 18.2188 7.04688C18.3853 7.95459 18.5625 9.30005 18.5625 11C18.5625 12.6973 18.3853 14.0454 18.2188 14.9531C18.114 15.5251 17.6628 15.9656 17.0801 16.0488C15.7239 16.2449 13.4814 16.5 11 16.5C8.51855 16.5 6.27344 16.2449 4.91992 16.0488C4.33984 15.9656 3.88599 15.5251 3.78125 14.9531C3.61475 14.0454 3.4375 12.7026 3.4375 11C3.4375 9.29468 3.61475 7.95459 3.78125 7.04688C3.88599 6.47485 4.33716 6.03711 4.91992 5.95117C6.26807 5.75513 8.50244 5.5 11 5.5ZM8.9375 7.06836V14.9316L9.96875 14.3516L14.7812 11.6016L15.8125 11L14.7812 10.3984L9.96875 7.64844L8.9375 7.06836ZM10.3125 9.43164L13.041 11L10.3125 12.5684V9.43164Z" fill="white"/>
</svg>
